HIERARCHY
ROOT Hips
{
	OFFSET 0.000000 0.000000 0.000000
	CHANNELS 6 Xposition Yposition Zposition Zrotation Yrotation Xrotation 
	JOINT LHipJoint
	{
		OFFSET 0.000000 0.000000 0.000000
		CHANNELS 3 Zrotation Yrotation Xrotation
		JOINT LeftUpLeg
		{
			OFFSET 1.363060 -1.794630 0.839290
			CHANNELS 3 Zrotation Yrotation Xrotation
			JOINT LeftLeg
			{
				OFFSET 2.448110 -6.726130 0.000000
				CHANNELS 3 Zrotation Yrotation Xrotation
				JOINT LeftFoot
				{
					OFFSET 2.562200 -7.039590 0.000000
					CHANNELS 3 Zrotation Yrotation Xrotation
					JOINT LeftToeBase
					{
						OFFSET 0.157640 -0.433110 2.322550
						CHANNELS 3 Zrotation Yrotation Xrotation
						End Site
						{
							OFFSET 0.000000 0.000000 0.000000
						}
					}
				}
			}
		}
	}
	JOINT RHipJoint
	{
		OFFSET 0.000000 0.000000 0.000000
		CHANNELS 3 Zrotation Yrotation Xrotation
		JOINT RightUpLeg
		{
			OFFSET -1.305520 -1.794630 0.839290
			CHANNELS 3 Zrotation Yrotation Xrotation
			JOINT RightLeg
			{
				OFFSET -2.542530 -6.985550 0.000000
				CHANNELS 3 Zrotation Yrotation Xrotation
				JOINT RightFoot
				{
					OFFSET -2.568260 -7.056230 0.000000
					CHANNELS 3 Zrotation Yrotation Xrotation
					JOINT RightToeBase
					{
						OFFSET -0.164730 -0.452590 2.363150
						CHANNELS 3 Zrotation Yrotation Xrotation
						End Site
						{
							OFFSET 0.000000 0.000000 0.000000
						}
					}
				}
			}
		}
	}
	JOINT LowerBack
	{
		OFFSET 0.000000 0.000000 0.000000
		CHANNELS 3 Zrotation Yrotation Xrotation
		JOINT Spine
		{
			OFFSET 0.028270 2.035590 -0.193380
			CHANNELS 3 Zrotation Yrotation Xrotation
			JOINT Spine1
			{
				OFFSET 0.056720 2.048850 -0.042750
				CHANNELS 3 Zrotation Yrotation Xrotation
				JOINT Neck
				{
					OFFSET 0.000000 0.000000 0.000000
					CHANNELS 3 Zrotation Yrotation Xrotation
					JOINT Neck1
					{
						OFFSET -0.054170 1.746240 0.172020
						CHANNELS 3 Zrotation Yrotation Xrotation
						JOINT Head
						{
							OFFSET 0.104070 1.761360 -0.123970
							CHANNELS 3 Zrotation Yrotation Xrotation
							End Site
							{
								OFFSET 0.000000 0.000000 0.000000
							}
						}
					}
				}
				JOINT LeftShoulder
				{
					OFFSET 0.000000 0.000000 0.000000
					CHANNELS 3 Zrotation Yrotation Xrotation
					JOINT LeftArm
					{
						OFFSET 3.362410 1.200890 -0.311210
						CHANNELS 3 Zrotation Yrotation Xrotation
						JOINT LeftForeArm
						{
							OFFSET 4.983000 -0.000000 -0.000000
							CHANNELS 3 Zrotation Yrotation Xrotation
							JOINT LeftHand
							{
								OFFSET 3.483560 -0.000000 -0.000000
								CHANNELS 3 Zrotation Yrotation Xrotation
								JOINT LeftFingerBase
								{
									OFFSET 0.000000 0.000000 0.000000
									CHANNELS 3 Zrotation Yrotation Xrotation
									JOINT LeftHandIndex1
									{
										OFFSET 0.715260 -0.000000 -0.000000
										CHANNELS 3 Zrotation Yrotation Xrotation
										End Site
										{
											OFFSET 0.000000 0.000000 0.000000
										}
									}
								}
								JOINT LThumb
								{
									OFFSET 0.000000 0.000000 0.000000
									CHANNELS 3 Zrotation Yrotation Xrotation
									End Site
									{
										OFFSET 0.000000 0.000000 0.000000
									}
								}
							}
						}
					}
				}
				JOINT RightShoulder
				{
					OFFSET 0.000000 0.000000 0.000000
					CHANNELS 3 Zrotation Yrotation Xrotation
					JOINT RightArm
					{
						OFFSET -3.136600 1.374050 -0.404650
						CHANNELS 3 Zrotation Yrotation Xrotation
						JOINT RightForeArm
						{
							OFFSET -5.241900 -0.000000 -0.000000
							CHANNELS 3 Zrotation Yrotation Xrotation
							JOINT RightHand
							{
								OFFSET -3.444170 -0.000000 -0.000000
								CHANNELS 3 Zrotation Yrotation Xrotation
								JOINT RightFingerBase
								{
									OFFSET 0.000000 0.000000 0.000000
									CHANNELS 3 Zrotation Yrotation Xrotation
									JOINT RightHandIndex1
									{
										OFFSET -0.622530 -0.000000 -0.000000
										CHANNELS 3 Zrotation Yrotation Xrotation
										End Site
										{
											OFFSET 0.000000 0.000000 0.000000
										}
									}
								}
								JOINT RThumb
								{
									OFFSET 0.000000 0.000000 0.000000
									CHANNELS 3 Zrotation Yrotation Xrotation
									End Site
									{
										OFFSET 0.000000 0.000000 0.000000
									}
								}
							}
						}
					}
				}
			}
		}
	}
}
MOTION
Frames: 5
Frame Time: 0.008333
1.865078 17.263764 -3.509843 0.416633 -24.294638 6.447295 -1.766423 -1.139289 0.053686 -18.279943 -0.857208 -6.576712 1.118281 9.666832 26.580280 0.739691 -0.522907 -11.217047 0.081600 -1.842900 -5.071700 1.017029 1.737151 -1.693176 9.235848 5.701092 -29.145649 -5.182557 -14.754404 43.515477 0.924547 -5.841327 -2.634546 -0.032100 -1.156100 3.178500 -0.940020 -1.317526 9.922614 2.727200 -1.447761 -3.028215 5.233495 -0.985517 -2.652564 -6.611050 -0.229528 -16.921769 6.600532 1.034762 3.565923 3.881200 0.683000 5.995700 -0.408187 -2.031673 0.883793 -86.740646 -14.046544 72.343078 64.390920 -59.233055 -31.965533 -0.919764 2.358582 -29.082744 33.178361 29.653634 16.218000 -7.125000 0.000000 0.000000 3.464200 60.883100 1.341700 1.437419 1.987471 0.144927 71.748358 15.823694 62.463700 -50.795517 55.118012 -23.326261 -1.252411 -1.169784 -9.792494 -38.981789 9.739047 -8.486600 7.125000 0.000000 0.000000 -7.207100 -16.044400 -4.974400 
1.938348 17.265069 -3.578396 0.393222 -24.419109 6.532428 -1.771236 -1.156567 0.042757 -18.386249 -0.850191 -6.970323 1.104014 9.650380 26.519301 0.749527 -0.549433 -11.281398 0.063400 -1.625100 -4.470500 1.014174 1.752301 -1.712536 9.023082 5.839683 -29.523733 -5.165278 -14.733534 43.428393 0.931436 -5.861034 -2.178560 -0.043400 -1.345100 3.698800 -0.991213 -1.295400 9.955116 2.713333 -1.422949 -3.018463 5.235392 -0.973720 -2.634879 -6.682315 -0.251509 -16.974723 6.650673 1.030152 3.499515 3.916300 0.685000 5.976500 -0.401447 -2.021816 0.887451 -86.791070 -14.349831 72.757342 63.868774 -59.140131 -31.592018 -0.925528 2.375514 -29.587243 33.660653 29.983578 16.653800 -7.125000 0.000000 0.000000 3.950200 61.342500 1.573300 1.417328 1.985435 0.151224 71.954701 15.885543 62.292185 -50.347939 54.951311 -23.024845 -1.251571 -1.168243 -9.525615 -39.032419 9.621513 -8.420200 7.125000 0.000000 0.000000 -7.262100 -16.173600 -4.992500 
2.010615 17.265471 -3.645845 0.380460 -24.570103 6.592377 -1.774164 -1.173704 0.031255 -18.499121 -0.808339 -7.363166 1.096377 9.644629 26.491487 0.764578 -0.610383 -11.330555 0.047700 -1.409100 -3.875200 1.012166 1.766663 -1.730693 8.801414 6.002582 -29.851855 -5.143899 -14.709107 43.327136 0.938176 -5.884866 -1.803499 -0.054000 -1.500000 4.125600 -1.052278 -1.260249 9.999411 2.692909 -1.381998 -3.004536 5.221979 -0.953351 -2.618807 -6.715123 -0.267729 -17.002760 6.668169 1.022447 3.408472 3.928600 0.684200 5.942500 -0.394924 -2.013966 0.891476 -86.827560 -14.606569 73.122077 63.413247 -59.057764 -31.273634 -0.930706 2.393426 -30.172885 34.235521 30.299251 17.140700 -7.125000 0.000000 0.000000 4.560700 61.810600 1.867500 1.398656 1.982380 0.157911 72.161423 15.928291 62.152074 -49.946502 54.800824 -22.752420 -1.252018 -1.165067 -9.179798 -39.044774 9.505115 -8.342100 7.125000 0.000000 0.000000 -7.291100 -16.309000 -4.991200 
2.081376 17.265069 -3.711688 0.387330 -24.755818 6.614616 -1.775101 -1.190254 0.019642 -18.636812 -0.722968 -7.742199 1.094490 9.648392 26.493136 0.779229 -0.671833 -11.373001 0.034500 -1.199400 -3.297600 1.010853 1.780024 -1.747200 8.564141 6.191244 -30.116742 -5.119623 -14.682558 43.219278 0.934469 -5.874433 -1.554410 -0.059400 -1.573200 4.327600 -1.134466 -1.211736 10.051542 2.665375 -1.325456 -2.986162 5.200538 -0.924923 -2.602046 -6.735108 -0.281006 -16.998664 6.676393 1.013812 3.305349 3.933400 0.682300 5.897300 -0.389474 -2.006639 0.895823 -86.861336 -14.807739 73.419523 63.023171 -58.988498 -31.009303 -0.937939 2.410820 -30.797414 34.845457 30.642554 17.671800 -7.125000 0.000000 0.000000 5.222900 62.320900 2.202300 1.380660 1.979430 0.164984 72.359897 15.949224 62.062663 -49.605253 54.673500 -22.518019 -1.253038 -1.161515 -8.845173 -39.032645 9.409653 -8.271300 7.125000 0.000000 0.000000 -7.300000 -16.424000 -4.979100 
2.150029 17.264166 -3.775824 0.419055 -24.978651 6.596205 -1.774062 -1.206002 0.008240 -18.806804 -0.595353 -8.103813 1.097985 9.661907 26.524091 0.789418 -0.716829 -11.401341 0.023500 -0.990500 -2.722700 1.010057 1.792291 -1.761467 8.312153 6.408044 -30.314771 -5.093918 -14.655890 43.114807 0.908616 -5.787054 -1.472169 -0.056500 -1.533700 4.218500 -1.247171 -1.148964 10.110931 2.631572 -1.253124 -2.965899 5.178391 -0.887764 -2.590946 -6.749712 -0.288548 -16.953487 6.681102 1.009460 3.191826 3.934900 0.682000 5.839500 -0.385620 -1.999965 0.899990 -86.885051 -14.947014 73.662291 62.709341 -58.935446 -30.804671 -0.946948 2.427141 -31.453765 35.482371 31.001426 18.237600 -7.125000 0.000000 0.000000 5.933000 62.858800 2.577900 1.363712 1.977278 0.172269 72.546600 15.943407 62.037586 -49.328152 54.572568 -22.324881 -1.254240 -1.158575 -8.596679 -39.020338 9.352123 -8.227500 7.125000 0.000000 0.000000 -7.302300 -16.493700 -4.969600 
